<svg width="17" height="16" viewBox="0 0 17 16" fill="none" xmlns="http://www.w3.org/2000/svg">
<rect width="17" height="16" fill="#EDEDED"/>
<g id="school-genuine" clip-path="url(#clip0_2415_26437)">
<rect width="1440" height="6715" transform="translate(-823 -2917)" fill="white"/>
<g id="1/3 Layout 3">
<rect width="1440" height="1236" transform="translate(-823 -704)" fill="#26335D"/>
<g id="container" clip-path="url(#clip1_2415_26437)">
<g id="row">
<g id="col-md-4">
<g id="Product card" clip-path="url(#clip2_2415_26437)">
<rect width="348" height="622" transform="translate(-277.5 -330)" fill="white"/>
<g id="Frame 3">
<g id="Frame 1" clip-path="url(#clip3_2415_26437)">
<g id="Frame 4 sec-">
<path d="M-4.5 8C-4.5 0.820299 1.3203 -5 8.5 -5H32.5C39.6797 -5 45.5 0.820299 45.5 8C45.5 15.1797 39.6797 21 32.5 21H8.5C1.3203 21 -4.5 15.1797 -4.5 8Z" fill="#26335D"/>
<g id="icon emojione-star">
<path id="Vector" d="M16 6.3H10.275L8.5 0.75L6.725 6.3H1L5.625 9.725L3.875 15.25L8.5 11.825L13.125 15.25L11.35 9.7L16 6.3Z" fill="#FFCE31"/>
</g>
</g>
</g>
</g>
</g>
</g>
</g>
</g>
</g>
</g>
<defs>
<clipPath id="clip0_2415_26437">
<rect width="1440" height="6715" fill="white" transform="translate(-823 -2917)"/>
</clipPath>
<clipPath id="clip1_2415_26437">
<rect width="1050" height="1156" fill="white" transform="translate(-628 -704)"/>
</clipPath>
<clipPath id="clip2_2415_26437">
<rect width="348" height="622" fill="white" transform="translate(-277.5 -330)"/>
</clipPath>
<clipPath id="clip3_2415_26437">
<rect width="298" height="26" fill="white" transform="translate(-252.5 -5)"/>
</clipPath>
</defs>
</svg>
